<svg width="1363" height="163" viewBox="0 0 1363 163" fill="none" xmlns="http://www.w3.org/2000/svg">
<path d="M0 15C0 6.71573 6.71573 0 15 0H37V163H15C6.71573 163 0 156.284 0 148V15Z" fill="#0A4A75"/>
<rect width="1097" height="163" transform="translate(37)" fill="#F0F0F0"/>
<path d="M102.152 43.9375V61H98.6484V43.9375H102.152ZM107.402 43.9375V46.6914H93.4805V43.9375H107.402ZM111.75 51.0859V61H108.375V48.3203H111.551L111.75 51.0859ZM115.57 48.2383L115.512 51.3672C115.348 51.3438 115.148 51.3242 114.914 51.3086C114.688 51.2852 114.48 51.2734 114.293 51.2734C113.816 51.2734 113.402 51.3359 113.051 51.4609C112.707 51.5781 112.418 51.7539 112.184 51.9883C111.957 52.2227 111.785 52.5078 111.668 52.8438C111.559 53.1797 111.496 53.5625 111.48 53.9922L110.801 53.7812C110.801 52.9609 110.883 52.207 111.047 51.5195C111.211 50.8242 111.449 50.2188 111.762 49.7031C112.082 49.1875 112.473 48.7891 112.934 48.5078C113.395 48.2266 113.922 48.0859 114.516 48.0859C114.703 48.0859 114.895 48.1016 115.09 48.1328C115.285 48.1562 115.445 48.1914 115.57 48.2383ZM123.609 58.1406V52.4922C123.609 52.0859 123.543 51.7383 123.41 51.4492C123.277 51.1523 123.07 50.9219 122.789 50.7578C122.516 50.5938 122.16 50.5117 121.723 50.5117C121.348 50.5117 121.023 50.5781 120.75 50.7109C120.477 50.8359 120.266 51.0195 120.117 51.2617C119.969 51.4961 119.895 51.7734 119.895 52.0938H116.52C116.52 51.5547 116.645 51.043 116.895 50.5586C117.145 50.0742 117.508 49.6484 117.984 49.2812C118.461 48.9062 119.027 48.6133 119.684 48.4023C120.348 48.1914 121.09 48.0859 121.91 48.0859C122.895 48.0859 123.77 48.25 124.535 48.5781C125.301 48.9062 125.902 49.3984 126.34 50.0547C126.785 50.7109 127.008 51.5312 127.008 52.5156V57.9414C127.008 58.6367 127.051 59.207 127.137 59.6523C127.223 60.0898 127.348 60.4727 127.512 60.8008V61H124.102C123.938 60.6562 123.812 60.2266 123.727 59.7109C123.648 59.1875 123.609 58.6641 123.609 58.1406ZM124.055 53.2773L124.078 55.1875H122.191C121.746 55.1875 121.359 55.2383 121.031 55.3398C120.703 55.4414 120.434 55.5859 120.223 55.7734C120.012 55.9531 119.855 56.1641 119.754 56.4062C119.66 56.6484 119.613 56.9141 119.613 57.2031C119.613 57.4922 119.68 57.7539 119.812 57.9883C119.945 58.2148 120.137 58.3945 120.387 58.5273C120.637 58.6523 120.93 58.7148 121.266 58.7148C121.773 58.7148 122.215 58.6133 122.59 58.4102C122.965 58.207 123.254 57.957 123.457 57.6602C123.668 57.3633 123.777 57.082 123.785 56.8164L124.676 58.2461C124.551 58.5664 124.379 58.8984 124.16 59.2422C123.949 59.5859 123.68 59.9102 123.352 60.2148C123.023 60.5117 122.629 60.7578 122.168 60.9531C121.707 61.1406 121.16 61.2344 120.527 61.2344C119.723 61.2344 118.992 61.0742 118.336 60.7539C117.688 60.4258 117.172 59.9766 116.789 59.4062C116.414 58.8281 116.227 58.1719 116.227 57.4375C116.227 56.7734 116.352 56.1836 116.602 55.668C116.852 55.1523 117.219 54.7188 117.703 54.3672C118.195 54.0078 118.809 53.7383 119.543 53.5586C120.277 53.3711 121.129 53.2773 122.098 53.2773H124.055ZM133.734 58.5391L136.547 48.3203H140.074L135.797 61H133.664L133.734 58.5391ZM131.801 48.3203L134.625 58.5508L134.684 61H132.539L128.262 48.3203H131.801ZM147.258 61.2344C146.273 61.2344 145.391 61.0781 144.609 60.7656C143.828 60.4453 143.164 60.0039 142.617 59.4414C142.078 58.8789 141.664 58.2266 141.375 57.4844C141.086 56.7344 140.941 55.9375 140.941 55.0938V54.625C140.941 53.6641 141.078 52.7852 141.352 51.9883C141.625 51.1914 142.016 50.5 142.523 49.9141C143.039 49.3281 143.664 48.8789 144.398 48.5664C145.133 48.2461 145.961 48.0859 146.883 48.0859C147.781 48.0859 148.578 48.2344 149.273 48.5312C149.969 48.8281 150.551 49.25 151.02 49.7969C151.496 50.3438 151.855 51 152.098 51.7656C152.34 52.5234 152.461 53.3672 152.461 54.2969V55.7031H142.383V53.4531H149.145V53.1953C149.145 52.7266 149.059 52.3086 148.887 51.9414C148.723 51.5664 148.473 51.2695 148.137 51.0508C147.801 50.832 147.371 50.7227 146.848 50.7227C146.402 50.7227 146.02 50.8203 145.699 51.0156C145.379 51.2109 145.117 51.4844 144.914 51.8359C144.719 52.1875 144.57 52.6016 144.469 53.0781C144.375 53.5469 144.328 54.0625 144.328 54.625V55.0938C144.328 55.6016 144.398 56.0703 144.539 56.5C144.688 56.9297 144.895 57.3008 145.16 57.6133C145.434 57.9258 145.762 58.168 146.145 58.3398C146.535 58.5117 146.977 58.5977 147.469 58.5977C148.078 58.5977 148.645 58.4805 149.168 58.2461C149.699 58.0039 150.156 57.6406 150.539 57.1562L152.18 58.9375C151.914 59.3203 151.551 59.6875 151.09 60.0391C150.637 60.3906 150.09 60.6797 149.449 60.9062C148.809 61.125 148.078 61.2344 147.258 61.2344ZM157.945 43V61H154.559V43H157.945ZM165.059 58.293L168.457 43.9375H170.355L170.789 46.3281L167.168 61H165.129L165.059 58.293ZM163.312 43.9375L166.125 58.293L165.891 61H163.617L159.832 43.9375H163.312ZM173.777 58.2344L176.555 43.9375H180.035L176.262 61H173.988L173.777 58.2344ZM171.422 43.9375L174.844 58.3516L174.75 61H172.711L169.066 46.3164L169.535 43.9375H171.422ZM185.297 48.3203V61H181.91V48.3203H185.297ZM181.699 45.0156C181.699 44.5234 181.871 44.1172 182.215 43.7969C182.559 43.4766 183.02 43.3164 183.598 43.3164C184.168 43.3164 184.625 43.4766 184.969 43.7969C185.32 44.1172 185.496 44.5234 185.496 45.0156C185.496 45.5078 185.32 45.9141 184.969 46.2344C184.625 46.5547 184.168 46.7148 183.598 46.7148C183.02 46.7148 182.559 46.5547 182.215 46.2344C181.871 45.9141 181.699 45.5078 181.699 45.0156ZM194.941 57.4961C194.941 57.2539 194.871 57.0352 194.73 56.8398C194.59 56.6445 194.328 56.4648 193.945 56.3008C193.57 56.1289 193.027 55.9727 192.316 55.832C191.676 55.6914 191.078 55.5156 190.523 55.3047C189.977 55.0859 189.5 54.8242 189.094 54.5195C188.695 54.2148 188.383 53.8555 188.156 53.4414C187.93 53.0195 187.816 52.5391 187.816 52C187.816 51.4688 187.93 50.9688 188.156 50.5C188.391 50.0312 188.723 49.6172 189.152 49.2578C189.59 48.8906 190.121 48.6055 190.746 48.4023C191.379 48.1914 192.09 48.0859 192.879 48.0859C193.98 48.0859 194.926 48.2617 195.715 48.6133C196.512 48.9648 197.121 49.4492 197.543 50.0664C197.973 50.6758 198.188 51.3711 198.188 52.1523H194.812C194.812 51.8242 194.742 51.5312 194.602 51.2734C194.469 51.0078 194.258 50.8008 193.969 50.6523C193.688 50.4961 193.32 50.418 192.867 50.418C192.492 50.418 192.168 50.4844 191.895 50.6172C191.621 50.7422 191.41 50.9141 191.262 51.1328C191.121 51.3438 191.051 51.5781 191.051 51.8359C191.051 52.0312 191.09 52.207 191.168 52.3633C191.254 52.5117 191.391 52.6484 191.578 52.7734C191.766 52.8984 192.008 53.0156 192.305 53.125C192.609 53.2266 192.984 53.3203 193.43 53.4062C194.344 53.5938 195.16 53.8398 195.879 54.1445C196.598 54.4414 197.168 54.8477 197.59 55.3633C198.012 55.8711 198.223 56.5391 198.223 57.3672C198.223 57.9297 198.098 58.4453 197.848 58.9141C197.598 59.3828 197.238 59.793 196.77 60.1445C196.301 60.4883 195.738 60.7578 195.082 60.9531C194.434 61.1406 193.703 61.2344 192.891 61.2344C191.711 61.2344 190.711 61.0234 189.891 60.6016C189.078 60.1797 188.461 59.6445 188.039 58.9961C187.625 58.3398 187.418 57.668 187.418 56.9805H190.617C190.633 57.4414 190.75 57.8125 190.969 58.0938C191.195 58.375 191.48 58.5781 191.824 58.7031C192.176 58.8281 192.555 58.8906 192.961 58.8906C193.398 58.8906 193.762 58.832 194.051 58.7148C194.34 58.5898 194.559 58.4258 194.707 58.2227C194.863 58.0117 194.941 57.7695 194.941 57.4961ZM206.25 61.2344C205.266 61.2344 204.383 61.0781 203.602 60.7656C202.82 60.4453 202.156 60.0039 201.609 59.4414C201.07 58.8789 200.656 58.2266 200.367 57.4844C200.078 56.7344 199.934 55.9375 199.934 55.0938V54.625C199.934 53.6641 200.07 52.7852 200.344 51.9883C200.617 51.1914 201.008 50.5 201.516 49.9141C202.031 49.3281 202.656 48.8789 203.391 48.5664C204.125 48.2461 204.953 48.0859 205.875 48.0859C206.773 48.0859 207.57 48.2344 208.266 48.5312C208.961 48.8281 209.543 49.25 210.012 49.7969C210.488 50.3438 210.848 51 211.09 51.7656C211.332 52.5234 211.453 53.3672 211.453 54.2969V55.7031H201.375V53.4531H208.137V53.1953C208.137 52.7266 208.051 52.3086 207.879 51.9414C207.715 51.5664 207.465 51.2695 207.129 51.0508C206.793 50.832 206.363 50.7227 205.84 50.7227C205.395 50.7227 205.012 50.8203 204.691 51.0156C204.371 51.2109 204.109 51.4844 203.906 51.8359C203.711 52.1875 203.562 52.6016 203.461 53.0781C203.367 53.5469 203.32 54.0625 203.32 54.625V55.0938C203.32 55.6016 203.391 56.0703 203.531 56.5C203.68 56.9297 203.887 57.3008 204.152 57.6133C204.426 57.9258 204.754 58.168 205.137 58.3398C205.527 58.5117 205.969 58.5977 206.461 58.5977C207.07 58.5977 207.637 58.4805 208.16 58.2461C208.691 58.0039 209.148 57.6406 209.531 57.1562L211.172 58.9375C210.906 59.3203 210.543 59.6875 210.082 60.0391C209.629 60.3906 209.082 60.6797 208.441 60.9062C207.801 61.125 207.07 61.2344 206.25 61.2344Z" fill="#888888"/>
<path d="M106.688 119H99.1172L99.1641 112.672H106.688C108.25 112.672 109.57 112.297 110.648 111.547C111.742 110.797 112.57 109.68 113.133 108.195C113.711 106.695 114 104.852 114 102.664V101.188C114 99.5469 113.836 98.1094 113.508 96.875C113.195 95.625 112.727 94.5859 112.102 93.7578C111.477 92.9141 110.695 92.2812 109.758 91.8594C108.836 91.4375 107.773 91.2266 106.57 91.2266H98.9766V84.875H106.57C108.883 84.875 111 85.2734 112.922 86.0703C114.859 86.8516 116.531 87.9766 117.938 89.4453C119.359 90.8984 120.453 92.625 121.219 94.625C122 96.6094 122.391 98.8125 122.391 101.234V102.664C122.391 105.07 122 107.273 121.219 109.273C120.453 111.273 119.367 113 117.961 114.453C116.555 115.906 114.891 117.031 112.969 117.828C111.062 118.609 108.969 119 106.688 119ZM103.828 84.875V119H95.6016V84.875H103.828ZM138.586 119.469C136.523 119.469 134.68 119.148 133.055 118.508C131.43 117.852 130.055 116.953 128.93 115.812C127.82 114.672 126.969 113.359 126.375 111.875C125.797 110.391 125.508 108.82 125.508 107.164V106.273C125.508 104.414 125.766 102.695 126.281 101.117C126.797 99.5234 127.562 98.1328 128.578 96.9453C129.594 95.7578 130.867 94.8359 132.398 94.1797C133.93 93.5078 135.711 93.1719 137.742 93.1719C139.539 93.1719 141.148 93.4609 142.57 94.0391C143.992 94.6172 145.195 95.4453 146.18 96.5234C147.18 97.6016 147.938 98.9062 148.453 100.438C148.984 101.969 149.25 103.688 149.25 105.594V108.805H128.531V103.859H141.539V103.25C141.555 102.406 141.406 101.688 141.094 101.094C140.797 100.5 140.359 100.047 139.781 99.7344C139.203 99.4219 138.5 99.2656 137.672 99.2656C136.812 99.2656 136.102 99.4531 135.539 99.8281C134.992 100.203 134.562 100.719 134.25 101.375C133.953 102.016 133.742 102.758 133.617 103.602C133.492 104.445 133.43 105.336 133.43 106.273V107.164C133.43 108.102 133.555 108.953 133.805 109.719C134.07 110.484 134.445 111.141 134.93 111.688C135.43 112.219 136.023 112.633 136.711 112.93C137.414 113.227 138.211 113.375 139.102 113.375C140.18 113.375 141.242 113.172 142.289 112.766C143.336 112.359 144.234 111.688 144.984 110.75L148.57 115.016C148.055 115.75 147.32 116.461 146.367 117.148C145.43 117.836 144.305 118.398 142.992 118.836C141.68 119.258 140.211 119.469 138.586 119.469ZM160.43 99.0078V119H152.531V93.6406H159.938L160.43 99.0078ZM159.469 105.453L157.664 105.5C157.664 103.719 157.875 102.078 158.297 100.578C158.719 99.0781 159.344 97.7734 160.172 96.6641C161 95.5547 162.016 94.6953 163.219 94.0859C164.438 93.4766 165.844 93.1719 167.438 93.1719C168.547 93.1719 169.555 93.3438 170.461 93.6875C171.367 94.0156 172.148 94.5391 172.805 95.2578C173.461 95.9609 173.961 96.8828 174.305 98.0234C174.664 99.1484 174.844 100.5 174.844 102.078V119H166.945V103.086C166.945 102.008 166.82 101.195 166.57 100.648C166.336 100.102 165.992 99.7344 165.539 99.5469C165.086 99.3594 164.531 99.2656 163.875 99.2656C163.188 99.2656 162.57 99.4219 162.023 99.7344C161.477 100.047 161.008 100.484 160.617 101.047C160.242 101.594 159.953 102.242 159.75 102.992C159.562 103.742 159.469 104.562 159.469 105.453ZM173.953 105.453L171.75 105.5C171.75 103.719 171.945 102.078 172.336 100.578C172.742 99.0781 173.344 97.7734 174.141 96.6641C174.953 95.5547 175.961 94.6953 177.164 94.0859C178.367 93.4766 179.766 93.1719 181.359 93.1719C182.516 93.1719 183.578 93.3438 184.547 93.6875C185.516 94.0312 186.352 94.5859 187.055 95.3516C187.758 96.1172 188.305 97.1328 188.695 98.3984C189.086 99.6484 189.281 101.195 189.281 103.039V119H181.359V103.039C181.359 101.992 181.234 101.203 180.984 100.672C180.75 100.125 180.406 99.7578 179.953 99.5703C179.5 99.3672 178.961 99.2656 178.336 99.2656C177.586 99.2656 176.938 99.4219 176.391 99.7344C175.844 100.047 175.383 100.484 175.008 101.047C174.648 101.594 174.383 102.242 174.211 102.992C174.039 103.742 173.953 104.562 173.953 105.453ZM192.82 106.578V106.086C192.82 104.227 193.086 102.516 193.617 100.953C194.148 99.375 194.93 98.0078 195.961 96.8516C196.992 95.6953 198.266 94.7969 199.781 94.1562C201.297 93.5 203.047 93.1719 205.031 93.1719C207.031 93.1719 208.789 93.5 210.305 94.1562C211.836 94.7969 213.117 95.6953 214.148 96.8516C215.18 98.0078 215.961 99.375 216.492 100.953C217.023 102.516 217.289 104.227 217.289 106.086V106.578C217.289 108.422 217.023 110.133 216.492 111.711C215.961 113.273 215.18 114.641 214.148 115.812C213.117 116.969 211.844 117.867 210.328 118.508C208.812 119.148 207.062 119.469 205.078 119.469C203.094 119.469 201.336 119.148 199.805 118.508C198.273 117.867 196.992 116.969 195.961 115.812C194.93 114.641 194.148 113.273 193.617 111.711C193.086 110.133 192.82 108.422 192.82 106.578ZM200.719 106.086V106.578C200.719 107.531 200.789 108.422 200.93 109.25C201.07 110.078 201.305 110.805 201.633 111.43C201.961 112.039 202.406 112.516 202.969 112.859C203.531 113.203 204.234 113.375 205.078 113.375C205.906 113.375 206.594 113.203 207.141 112.859C207.703 112.516 208.148 112.039 208.477 111.43C208.805 110.805 209.039 110.078 209.18 109.25C209.32 108.422 209.391 107.531 209.391 106.578V106.086C209.391 105.164 209.32 104.297 209.18 103.484C209.039 102.656 208.805 101.93 208.477 101.305C208.148 100.664 207.703 100.164 207.141 99.8047C206.578 99.4453 205.875 99.2656 205.031 99.2656C204.203 99.2656 203.508 99.4453 202.945 99.8047C202.398 100.164 201.961 100.664 201.633 101.305C201.305 101.93 201.07 102.656 200.93 103.484C200.789 104.297 200.719 105.164 200.719 106.086Z" fill="black"/>
<path d="M1134 0H1348C1356.28 0 1363 6.71573 1363 15V148C1363 156.284 1356.28 163 1348 163H1134V0Z" fill="#0A4A75"/>
<path d="M1280.07 47.5H1216.93L1214.5 49.9286V113.071L1216.93 115.5H1280.07L1282.5 113.071V49.9286L1280.07 47.5ZM1277.64 110.643H1233.93V100.929H1245.1C1246.56 103.843 1249.96 105.786 1253.36 105.786C1258.7 105.786 1263.07 101.414 1263.07 96.0714C1263.07 90.7286 1258.7 86.3571 1253.36 86.3571C1248.01 86.3571 1243.64 90.7286 1243.64 96.0714H1229.07V110.643H1219.36V52.3571H1229.07V63.5286C1226.16 64.9857 1224.21 68.3857 1224.21 71.7857C1224.21 77.1286 1228.59 81.5 1233.93 81.5C1239.27 81.5 1243.64 77.1286 1243.64 71.7857H1253.36C1253.36 77.1286 1257.73 81.5 1263.07 81.5C1268.41 81.5 1272.79 77.1286 1272.79 71.7857C1272.79 66.4429 1268.41 62.0714 1263.07 62.0714C1259.67 62.0714 1256.27 64.0143 1254.81 66.9286H1242.19C1240.73 64.0143 1237.33 62.0714 1233.93 62.0714V52.3571H1277.64V110.643ZM1248.5 96.0714C1248.5 93.1571 1250.44 91.2143 1253.36 91.2143C1256.27 91.2143 1258.21 93.1571 1258.21 96.0714C1258.21 98.9857 1256.27 100.929 1253.36 100.929C1250.44 100.929 1248.5 98.9857 1248.5 96.0714ZM1233.93 66.9286C1236.84 66.9286 1238.79 68.8714 1238.79 71.7857C1238.79 74.7 1236.84 76.6429 1233.93 76.6429C1231.01 76.6429 1229.07 74.7 1229.07 71.7857C1229.07 68.8714 1231.01 66.9286 1233.93 66.9286ZM1263.07 66.9286C1265.99 66.9286 1267.93 68.8714 1267.93 71.7857C1267.93 74.7 1265.99 76.6429 1263.07 76.6429C1260.16 76.6429 1258.21 74.7 1258.21 71.7857C1258.21 68.8714 1260.16 66.9286 1263.07 66.9286Z" fill="white"/>
</svg>
