<svg width="1363" height="163" viewBox="0 0 1363 163" fill="none" xmlns="http://www.w3.org/2000/svg">
<path d="M0 15C0 6.71573 6.71573 0 15 0H37V163H15C6.71573 163 0 156.284 0 148V15Z" fill="#0A4A75"/>
<rect width="1097" height="163" transform="translate(37)" fill="#F0F0F0"/>
<path d="M102.152 43.9375V61H98.6484V43.9375H102.152ZM107.402 43.9375V46.6914H93.4805V43.9375H107.402ZM111.75 51.0859V61H108.375V48.3203H111.551L111.75 51.0859ZM115.57 48.2383L115.512 51.3672C115.348 51.3438 115.148 51.3242 114.914 51.3086C114.688 51.2852 114.48 51.2734 114.293 51.2734C113.816 51.2734 113.402 51.3359 113.051 51.4609C112.707 51.5781 112.418 51.7539 112.184 51.9883C111.957 52.2227 111.785 52.5078 111.668 52.8438C111.559 53.1797 111.496 53.5625 111.48 53.9922L110.801 53.7812C110.801 52.9609 110.883 52.207 111.047 51.5195C111.211 50.8242 111.449 50.2188 111.762 49.7031C112.082 49.1875 112.473 48.7891 112.934 48.5078C113.395 48.2266 113.922 48.0859 114.516 48.0859C114.703 48.0859 114.895 48.1016 115.09 48.1328C115.285 48.1562 115.445 48.1914 115.57 48.2383ZM123.609 58.1406V52.4922C123.609 52.0859 123.543 51.7383 123.41 51.4492C123.277 51.1523 123.07 50.9219 122.789 50.7578C122.516 50.5938 122.16 50.5117 121.723 50.5117C121.348 50.5117 121.023 50.5781 120.75 50.7109C120.477 50.8359 120.266 51.0195 120.117 51.2617C119.969 51.4961 119.895 51.7734 119.895 52.0938H116.52C116.52 51.5547 116.645 51.043 116.895 50.5586C117.145 50.0742 117.508 49.6484 117.984 49.2812C118.461 48.9062 119.027 48.6133 119.684 48.4023C120.348 48.1914 121.09 48.0859 121.91 48.0859C122.895 48.0859 123.77 48.25 124.535 48.5781C125.301 48.9062 125.902 49.3984 126.34 50.0547C126.785 50.7109 127.008 51.5312 127.008 52.5156V57.9414C127.008 58.6367 127.051 59.207 127.137 59.6523C127.223 60.0898 127.348 60.4727 127.512 60.8008V61H124.102C123.938 60.6562 123.812 60.2266 123.727 59.7109C123.648 59.1875 123.609 58.6641 123.609 58.1406ZM124.055 53.2773L124.078 55.1875H122.191C121.746 55.1875 121.359 55.2383 121.031 55.3398C120.703 55.4414 120.434 55.5859 120.223 55.7734C120.012 55.9531 119.855 56.1641 119.754 56.4062C119.66 56.6484 119.613 56.9141 119.613 57.2031C119.613 57.4922 119.68 57.7539 119.812 57.9883C119.945 58.2148 120.137 58.3945 120.387 58.5273C120.637 58.6523 120.93 58.7148 121.266 58.7148C121.773 58.7148 122.215 58.6133 122.59 58.4102C122.965 58.207 123.254 57.957 123.457 57.6602C123.668 57.3633 123.777 57.082 123.785 56.8164L124.676 58.2461C124.551 58.5664 124.379 58.8984 124.16 59.2422C123.949 59.5859 123.68 59.9102 123.352 60.2148C123.023 60.5117 122.629 60.7578 122.168 60.9531C121.707 61.1406 121.16 61.2344 120.527 61.2344C119.723 61.2344 118.992 61.0742 118.336 60.7539C117.688 60.4258 117.172 59.9766 116.789 59.4062C116.414 58.8281 116.227 58.1719 116.227 57.4375C116.227 56.7734 116.352 56.1836 116.602 55.668C116.852 55.1523 117.219 54.7188 117.703 54.3672C118.195 54.0078 118.809 53.7383 119.543 53.5586C120.277 53.3711 121.129 53.2773 122.098 53.2773H124.055ZM133.734 58.5391L136.547 48.3203H140.074L135.797 61H133.664L133.734 58.5391ZM131.801 48.3203L134.625 58.5508L134.684 61H132.539L128.262 48.3203H131.801ZM147.258 61.2344C146.273 61.2344 145.391 61.0781 144.609 60.7656C143.828 60.4453 143.164 60.0039 142.617 59.4414C142.078 58.8789 141.664 58.2266 141.375 57.4844C141.086 56.7344 140.941 55.9375 140.941 55.0938V54.625C140.941 53.6641 141.078 52.7852 141.352 51.9883C141.625 51.1914 142.016 50.5 142.523 49.9141C143.039 49.3281 143.664 48.8789 144.398 48.5664C145.133 48.2461 145.961 48.0859 146.883 48.0859C147.781 48.0859 148.578 48.2344 149.273 48.5312C149.969 48.8281 150.551 49.25 151.02 49.7969C151.496 50.3438 151.855 51 152.098 51.7656C152.34 52.5234 152.461 53.3672 152.461 54.2969V55.7031H142.383V53.4531H149.145V53.1953C149.145 52.7266 149.059 52.3086 148.887 51.9414C148.723 51.5664 148.473 51.2695 148.137 51.0508C147.801 50.832 147.371 50.7227 146.848 50.7227C146.402 50.7227 146.02 50.8203 145.699 51.0156C145.379 51.2109 145.117 51.4844 144.914 51.8359C144.719 52.1875 144.57 52.6016 144.469 53.0781C144.375 53.5469 144.328 54.0625 144.328 54.625V55.0938C144.328 55.6016 144.398 56.0703 144.539 56.5C144.688 56.9297 144.895 57.3008 145.16 57.6133C145.434 57.9258 145.762 58.168 146.145 58.3398C146.535 58.5117 146.977 58.5977 147.469 58.5977C148.078 58.5977 148.645 58.4805 149.168 58.2461C149.699 58.0039 150.156 57.6406 150.539 57.1562L152.18 58.9375C151.914 59.3203 151.551 59.6875 151.09 60.0391C150.637 60.3906 150.09 60.6797 149.449 60.9062C148.809 61.125 148.078 61.2344 147.258 61.2344ZM157.945 43V61H154.559V43H157.945ZM165.059 58.293L168.457 43.9375H170.355L170.789 46.3281L167.168 61H165.129L165.059 58.293ZM163.312 43.9375L166.125 58.293L165.891 61H163.617L159.832 43.9375H163.312ZM173.777 58.2344L176.555 43.9375H180.035L176.262 61H173.988L173.777 58.2344ZM171.422 43.9375L174.844 58.3516L174.75 61H172.711L169.066 46.3164L169.535 43.9375H171.422ZM185.297 48.3203V61H181.91V48.3203H185.297ZM181.699 45.0156C181.699 44.5234 181.871 44.1172 182.215 43.7969C182.559 43.4766 183.02 43.3164 183.598 43.3164C184.168 43.3164 184.625 43.4766 184.969 43.7969C185.32 44.1172 185.496 44.5234 185.496 45.0156C185.496 45.5078 185.32 45.9141 184.969 46.2344C184.625 46.5547 184.168 46.7148 183.598 46.7148C183.02 46.7148 182.559 46.5547 182.215 46.2344C181.871 45.9141 181.699 45.5078 181.699 45.0156ZM194.941 57.4961C194.941 57.2539 194.871 57.0352 194.73 56.8398C194.59 56.6445 194.328 56.4648 193.945 56.3008C193.57 56.1289 193.027 55.9727 192.316 55.832C191.676 55.6914 191.078 55.5156 190.523 55.3047C189.977 55.0859 189.5 54.8242 189.094 54.5195C188.695 54.2148 188.383 53.8555 188.156 53.4414C187.93 53.0195 187.816 52.5391 187.816 52C187.816 51.4688 187.93 50.9688 188.156 50.5C188.391 50.0312 188.723 49.6172 189.152 49.2578C189.59 48.8906 190.121 48.6055 190.746 48.4023C191.379 48.1914 192.09 48.0859 192.879 48.0859C193.98 48.0859 194.926 48.2617 195.715 48.6133C196.512 48.9648 197.121 49.4492 197.543 50.0664C197.973 50.6758 198.188 51.3711 198.188 52.1523H194.812C194.812 51.8242 194.742 51.5312 194.602 51.2734C194.469 51.0078 194.258 50.8008 193.969 50.6523C193.688 50.4961 193.32 50.418 192.867 50.418C192.492 50.418 192.168 50.4844 191.895 50.6172C191.621 50.7422 191.41 50.9141 191.262 51.1328C191.121 51.3438 191.051 51.5781 191.051 51.8359C191.051 52.0312 191.09 52.207 191.168 52.3633C191.254 52.5117 191.391 52.6484 191.578 52.7734C191.766 52.8984 192.008 53.0156 192.305 53.125C192.609 53.2266 192.984 53.3203 193.43 53.4062C194.344 53.5938 195.16 53.8398 195.879 54.1445C196.598 54.4414 197.168 54.8477 197.59 55.3633C198.012 55.8711 198.223 56.5391 198.223 57.3672C198.223 57.9297 198.098 58.4453 197.848 58.9141C197.598 59.3828 197.238 59.793 196.77 60.1445C196.301 60.4883 195.738 60.7578 195.082 60.9531C194.434 61.1406 193.703 61.2344 192.891 61.2344C191.711 61.2344 190.711 61.0234 189.891 60.6016C189.078 60.1797 188.461 59.6445 188.039 58.9961C187.625 58.3398 187.418 57.668 187.418 56.9805H190.617C190.633 57.4414 190.75 57.8125 190.969 58.0938C191.195 58.375 191.48 58.5781 191.824 58.7031C192.176 58.8281 192.555 58.8906 192.961 58.8906C193.398 58.8906 193.762 58.832 194.051 58.7148C194.34 58.5898 194.559 58.4258 194.707 58.2227C194.863 58.0117 194.941 57.7695 194.941 57.4961ZM206.25 61.2344C205.266 61.2344 204.383 61.0781 203.602 60.7656C202.82 60.4453 202.156 60.0039 201.609 59.4414C201.07 58.8789 200.656 58.2266 200.367 57.4844C200.078 56.7344 199.934 55.9375 199.934 55.0938V54.625C199.934 53.6641 200.07 52.7852 200.344 51.9883C200.617 51.1914 201.008 50.5 201.516 49.9141C202.031 49.3281 202.656 48.8789 203.391 48.5664C204.125 48.2461 204.953 48.0859 205.875 48.0859C206.773 48.0859 207.57 48.2344 208.266 48.5312C208.961 48.8281 209.543 49.25 210.012 49.7969C210.488 50.3438 210.848 51 211.09 51.7656C211.332 52.5234 211.453 53.3672 211.453 54.2969V55.7031H201.375V53.4531H208.137V53.1953C208.137 52.7266 208.051 52.3086 207.879 51.9414C207.715 51.5664 207.465 51.2695 207.129 51.0508C206.793 50.832 206.363 50.7227 205.84 50.7227C205.395 50.7227 205.012 50.8203 204.691 51.0156C204.371 51.2109 204.109 51.4844 203.906 51.8359C203.711 52.1875 203.562 52.6016 203.461 53.0781C203.367 53.5469 203.32 54.0625 203.32 54.625V55.0938C203.32 55.6016 203.391 56.0703 203.531 56.5C203.68 56.9297 203.887 57.3008 204.152 57.6133C204.426 57.9258 204.754 58.168 205.137 58.3398C205.527 58.5117 205.969 58.5977 206.461 58.5977C207.07 58.5977 207.637 58.4805 208.16 58.2461C208.691 58.0039 209.148 57.6406 209.531 57.1562L211.172 58.9375C210.906 59.3203 210.543 59.6875 210.082 60.0391C209.629 60.3906 209.082 60.6797 208.441 60.9062C207.801 61.125 207.07 61.2344 206.25 61.2344Z" fill="#888888"/>
<path d="M106.688 119H99.1172L99.1641 112.672H106.688C108.25 112.672 109.57 112.297 110.648 111.547C111.742 110.797 112.57 109.68 113.133 108.195C113.711 106.695 114 104.852 114 102.664V101.188C114 99.5469 113.836 98.1094 113.508 96.875C113.195 95.625 112.727 94.5859 112.102 93.7578C111.477 92.9141 110.695 92.2812 109.758 91.8594C108.836 91.4375 107.773 91.2266 106.57 91.2266H98.9766V84.875H106.57C108.883 84.875 111 85.2734 112.922 86.0703C114.859 86.8516 116.531 87.9766 117.938 89.4453C119.359 90.8984 120.453 92.625 121.219 94.625C122 96.6094 122.391 98.8125 122.391 101.234V102.664C122.391 105.07 122 107.273 121.219 109.273C120.453 111.273 119.367 113 117.961 114.453C116.555 115.906 114.891 117.031 112.969 117.828C111.062 118.609 108.969 119 106.688 119ZM103.828 84.875V119H95.6016V84.875H103.828ZM138.586 119.469C136.523 119.469 134.68 119.148 133.055 118.508C131.43 117.852 130.055 116.953 128.93 115.812C127.82 114.672 126.969 113.359 126.375 111.875C125.797 110.391 125.508 108.82 125.508 107.164V106.273C125.508 104.414 125.766 102.695 126.281 101.117C126.797 99.5234 127.562 98.1328 128.578 96.9453C129.594 95.7578 130.867 94.8359 132.398 94.1797C133.93 93.5078 135.711 93.1719 137.742 93.1719C139.539 93.1719 141.148 93.4609 142.57 94.0391C143.992 94.6172 145.195 95.4453 146.18 96.5234C147.18 97.6016 147.938 98.9062 148.453 100.438C148.984 101.969 149.25 103.688 149.25 105.594V108.805H128.531V103.859H141.539V103.25C141.555 102.406 141.406 101.688 141.094 101.094C140.797 100.5 140.359 100.047 139.781 99.7344C139.203 99.4219 138.5 99.2656 137.672 99.2656C136.812 99.2656 136.102 99.4531 135.539 99.8281C134.992 100.203 134.562 100.719 134.25 101.375C133.953 102.016 133.742 102.758 133.617 103.602C133.492 104.445 133.43 105.336 133.43 106.273V107.164C133.43 108.102 133.555 108.953 133.805 109.719C134.07 110.484 134.445 111.141 134.93 111.688C135.43 112.219 136.023 112.633 136.711 112.93C137.414 113.227 138.211 113.375 139.102 113.375C140.18 113.375 141.242 113.172 142.289 112.766C143.336 112.359 144.234 111.688 144.984 110.75L148.57 115.016C148.055 115.75 147.32 116.461 146.367 117.148C145.43 117.836 144.305 118.398 142.992 118.836C141.68 119.258 140.211 119.469 138.586 119.469ZM160.43 98.5156V128.75H152.531V93.6406H159.891L160.43 98.5156ZM175.992 106.016V106.508C175.992 108.352 175.781 110.062 175.359 111.641C174.938 113.219 174.312 114.594 173.484 115.766C172.656 116.938 171.625 117.852 170.391 118.508C169.172 119.148 167.758 119.469 166.148 119.469C164.633 119.469 163.328 119.133 162.234 118.461C161.141 117.789 160.227 116.859 159.492 115.672C158.758 114.484 158.164 113.125 157.711 111.594C157.258 110.062 156.898 108.445 156.633 106.742V106.109C156.898 104.281 157.258 102.586 157.711 101.023C158.164 99.4453 158.758 98.0703 159.492 96.8984C160.227 95.7266 161.133 94.8125 162.211 94.1562C163.305 93.5 164.609 93.1719 166.125 93.1719C167.734 93.1719 169.148 93.4766 170.367 94.0859C171.602 94.6953 172.633 95.5703 173.461 96.7109C174.305 97.8359 174.938 99.1875 175.359 100.766C175.781 102.344 175.992 104.094 175.992 106.016ZM168.094 106.508V106.016C168.094 105.031 168.023 104.133 167.883 103.32C167.742 102.492 167.516 101.773 167.203 101.164C166.906 100.555 166.508 100.086 166.008 99.7578C165.508 99.4297 164.891 99.2656 164.156 99.2656C163.312 99.2656 162.602 99.3984 162.023 99.6641C161.461 99.9141 161.008 100.305 160.664 100.836C160.336 101.352 160.102 102 159.961 102.781C159.836 103.547 159.781 104.445 159.797 105.477V107.398C159.766 108.586 159.883 109.633 160.148 110.539C160.414 111.43 160.875 112.125 161.531 112.625C162.188 113.125 163.078 113.375 164.203 113.375C164.953 113.375 165.578 113.203 166.078 112.859C166.578 112.5 166.977 112.008 167.273 111.383C167.57 110.742 167.781 110.008 167.906 109.18C168.031 108.352 168.094 107.461 168.094 106.508ZM187.852 83V119H179.93V83H187.852ZM191.742 106.578V106.086C191.742 104.227 192.008 102.516 192.539 100.953C193.07 99.375 193.852 98.0078 194.883 96.8516C195.914 95.6953 197.188 94.7969 198.703 94.1562C200.219 93.5 201.969 93.1719 203.953 93.1719C205.953 93.1719 207.711 93.5 209.227 94.1562C210.758 94.7969 212.039 95.6953 213.07 96.8516C214.102 98.0078 214.883 99.375 215.414 100.953C215.945 102.516 216.211 104.227 216.211 106.086V106.578C216.211 108.422 215.945 110.133 215.414 111.711C214.883 113.273 214.102 114.641 213.07 115.812C212.039 116.969 210.766 117.867 209.25 118.508C207.734 119.148 205.984 119.469 204 119.469C202.016 119.469 200.258 119.148 198.727 118.508C197.195 117.867 195.914 116.969 194.883 115.812C193.852 114.641 193.07 113.273 192.539 111.711C192.008 110.133 191.742 108.422 191.742 106.578ZM199.641 106.086V106.578C199.641 107.531 199.711 108.422 199.852 109.25C199.992 110.078 200.227 110.805 200.555 111.43C200.883 112.039 201.328 112.516 201.891 112.859C202.453 113.203 203.156 113.375 204 113.375C204.828 113.375 205.516 113.203 206.062 112.859C206.625 112.516 207.07 112.039 207.398 111.43C207.727 110.805 207.961 110.078 208.102 109.25C208.242 108.422 208.312 107.531 208.312 106.578V106.086C208.312 105.164 208.242 104.297 208.102 103.484C207.961 102.656 207.727 101.93 207.398 101.305C207.07 100.664 206.625 100.164 206.062 99.8047C205.5 99.4453 204.797 99.2656 203.953 99.2656C203.125 99.2656 202.43 99.4453 201.867 99.8047C201.32 100.164 200.883 100.664 200.555 101.305C200.227 101.93 199.992 102.656 199.852 103.484C199.711 104.297 199.641 105.164 199.641 106.086ZM227.133 116.023L233.695 93.6406H242.18L231.984 122.773C231.766 123.414 231.477 124.102 231.117 124.836C230.758 125.586 230.266 126.297 229.641 126.969C229.016 127.641 228.211 128.188 227.227 128.609C226.258 129.031 225.055 129.242 223.617 129.242C222.852 129.242 222.289 129.203 221.93 129.125C221.586 129.062 221.055 128.945 220.336 128.773V123.125C220.539 123.125 220.711 123.125 220.852 123.125C221.008 123.125 221.18 123.125 221.367 123.125C222.211 123.125 222.883 123.039 223.383 122.867C223.898 122.695 224.289 122.445 224.555 122.117C224.836 121.789 225.055 121.391 225.211 120.922L227.133 116.023ZM225.469 93.6406L230.461 111.383L231.328 119.75H226.031L217.008 93.6406H225.469ZM252.211 99.0078V119H244.312V93.6406H251.719L252.211 99.0078ZM251.25 105.453L249.445 105.5C249.445 103.719 249.656 102.078 250.078 100.578C250.5 99.0781 251.125 97.7734 251.953 96.6641C252.781 95.5547 253.797 94.6953 255 94.0859C256.219 93.4766 257.625 93.1719 259.219 93.1719C260.328 93.1719 261.336 93.3438 262.242 93.6875C263.148 94.0156 263.93 94.5391 264.586 95.2578C265.242 95.9609 265.742 96.8828 266.086 98.0234C266.445 99.1484 266.625 100.5 266.625 102.078V119H258.727V103.086C258.727 102.008 258.602 101.195 258.352 100.648C258.117 100.102 257.773 99.7344 257.32 99.5469C256.867 99.3594 256.312 99.2656 255.656 99.2656C254.969 99.2656 254.352 99.4219 253.805 99.7344C253.258 100.047 252.789 100.484 252.398 101.047C252.023 101.594 251.734 102.242 251.531 102.992C251.344 103.742 251.25 104.562 251.25 105.453ZM265.734 105.453L263.531 105.5C263.531 103.719 263.727 102.078 264.117 100.578C264.523 99.0781 265.125 97.7734 265.922 96.6641C266.734 95.5547 267.742 94.6953 268.945 94.0859C270.148 93.4766 271.547 93.1719 273.141 93.1719C274.297 93.1719 275.359 93.3438 276.328 93.6875C277.297 94.0312 278.133 94.5859 278.836 95.3516C279.539 96.1172 280.086 97.1328 280.477 98.3984C280.867 99.6484 281.062 101.195 281.062 103.039V119H273.141V103.039C273.141 101.992 273.016 101.203 272.766 100.672C272.531 100.125 272.188 99.7578 271.734 99.5703C271.281 99.3672 270.742 99.2656 270.117 99.2656C269.367 99.2656 268.719 99.4219 268.172 99.7344C267.625 100.047 267.164 100.484 266.789 101.047C266.43 101.594 266.164 102.242 265.992 102.992C265.82 103.742 265.734 104.562 265.734 105.453ZM297.867 119.469C295.805 119.469 293.961 119.148 292.336 118.508C290.711 117.852 289.336 116.953 288.211 115.812C287.102 114.672 286.25 113.359 285.656 111.875C285.078 110.391 284.789 108.82 284.789 107.164V106.273C284.789 104.414 285.047 102.695 285.562 101.117C286.078 99.5234 286.844 98.1328 287.859 96.9453C288.875 95.7578 290.148 94.8359 291.68 94.1797C293.211 93.5078 294.992 93.1719 297.023 93.1719C298.82 93.1719 300.43 93.4609 301.852 94.0391C303.273 94.6172 304.477 95.4453 305.461 96.5234C306.461 97.6016 307.219 98.9062 307.734 100.438C308.266 101.969 308.531 103.688 308.531 105.594V108.805H287.812V103.859H300.82V103.25C300.836 102.406 300.688 101.688 300.375 101.094C300.078 100.5 299.641 100.047 299.062 99.7344C298.484 99.4219 297.781 99.2656 296.953 99.2656C296.094 99.2656 295.383 99.4531 294.82 99.8281C294.273 100.203 293.844 100.719 293.531 101.375C293.234 102.016 293.023 102.758 292.898 103.602C292.773 104.445 292.711 105.336 292.711 106.273V107.164C292.711 108.102 292.836 108.953 293.086 109.719C293.352 110.484 293.727 111.141 294.211 111.688C294.711 112.219 295.305 112.633 295.992 112.93C296.695 113.227 297.492 113.375 298.383 113.375C299.461 113.375 300.523 113.172 301.57 112.766C302.617 112.359 303.516 111.688 304.266 110.75L307.852 115.016C307.336 115.75 306.602 116.461 305.648 117.148C304.711 117.836 303.586 118.398 302.273 118.836C300.961 119.258 299.492 119.469 297.867 119.469ZM319.5 99.0547V119H311.602V93.6406H319.008L319.5 99.0547ZM318.562 105.453L316.711 105.5C316.711 103.562 316.945 101.836 317.414 100.32C317.883 98.7891 318.547 97.4922 319.406 96.4297C320.266 95.3672 321.289 94.5625 322.477 94.0156C323.68 93.4531 325.016 93.1719 326.484 93.1719C327.656 93.1719 328.727 93.3438 329.695 93.6875C330.68 94.0312 331.523 94.5859 332.227 95.3516C332.945 96.1172 333.492 97.1328 333.867 98.3984C334.258 99.6484 334.453 101.195 334.453 103.039V119H326.508V103.016C326.508 102 326.367 101.227 326.086 100.695C325.805 100.148 325.398 99.7734 324.867 99.5703C324.336 99.3672 323.688 99.2656 322.922 99.2656C322.109 99.2656 321.422 99.4219 320.859 99.7344C320.297 100.047 319.844 100.484 319.5 101.047C319.172 101.594 318.93 102.242 318.773 102.992C318.633 103.742 318.562 104.562 318.562 105.453ZM352.195 93.6406V99.125H336.914V93.6406H352.195ZM340.125 87.3359H348.023V110.727C348.023 111.398 348.102 111.922 348.258 112.297C348.414 112.656 348.68 112.914 349.055 113.07C349.445 113.211 349.961 113.281 350.602 113.281C351.055 113.281 351.43 113.273 351.727 113.258C352.023 113.227 352.305 113.188 352.57 113.141V118.789C351.898 119.008 351.195 119.172 350.461 119.281C349.727 119.406 348.945 119.469 348.117 119.469C346.43 119.469 344.984 119.203 343.781 118.672C342.594 118.141 341.688 117.305 341.062 116.164C340.438 115.023 340.125 113.539 340.125 111.711V87.3359Z" fill="black"/>
<path d="M1134 0H1348C1356.28 0 1363 6.71573 1363 15V148C1363 156.284 1356.28 163 1348 163H1134V0Z" fill="#0A4A75"/>
<path d="M1212.5 117.5L1212.5 45.5L1284.5 45.5L1284.5 117.5L1212.5 117.5Z" fill="white" fill-opacity="0.01"/>
<path d="M1221.5 81.5125L1221.5 108.5L1275.5 108.5L1275.5 81.5" stroke="white" stroke-width="7.24" stroke-linecap="round" stroke-linejoin="round"/>
<path d="M1262 68L1248.5 54.5L1235 68" stroke="white" stroke-width="7.24" stroke-linecap="round" stroke-linejoin="round"/>
<path d="M1248.49 93.4999L1248.49 54.5" stroke="white" stroke-width="7.24" stroke-linecap="round" stroke-linejoin="round"/>
</svg>
